# MagicaVoxel @ Ephtracy

# group
o 

# material
mtllib untitled.mtl
usemtl palette

# normals
vn -1 0 0
vn 1 0 0
vn 0 0 1
vn 0 0 -1
vn 0 -1 0
vn 0 1 0

# texcoords
vt 0.306641 0.5

# verts
v -2 0 -1.1
v -2 0 -2
v -2 2.8 -1
v -2 2.8 -1.1
v -2 3.6 -0.5
v -2 3.6 -1
v -2 4 -0.5
v -2 4 -2
v -1.7 0 -1
v -1.7 0 -1.1
v -1.7 2.8 -1
v -1.7 2.8 -1.1
v -1.5 0 -0.3
v -1.5 0 -1
v -1.5 2.4 -0.2
v -1.5 2.4 -0.3
v -1.5 3.4 2.23517e-08
v -1.5 3.4 -0.2
v -1.5 3.6 -0.5
v -1.5 3.6 -1
v -1.5 3.8 2.23517e-08
v -1.5 3.8 -0.5
v -1.1 3.8 2.23517e-08
v -1.1 3.8 -0.6
v -1.1 3.9 2.23517e-08
v -1.1 3.9 -0.5
v -1.1 4 -0.5
v -1.1 4 -0.6
v -0.8 0 -0.2
v -0.8 0 -0.3
v -0.8 2.4 -0.2
v -0.8 2.4 -0.3
v 1.4 3.9 -0.4
v 1.4 3.9 -0.5
v 1.4 4 -0.4
v 1.4 4 -0.5
v -1.7 3.8 -0.5
v -1.7 3.8 -0.6
v -1.7 4 -0.5
v -1.7 4 -0.6
v 0.3 0 -0.2
v 0.3 0 -0.3
v 0.3 3 -0.2
v 0.3 3 -0.3
v 1.3 0 -0.3
v 1.3 0 -0.9
v 1.3 3 -0.2
v 1.3 3 -0.3
v 1.3 3.4 2.23517e-08
v 1.3 3.4 -0.2
v 1.3 3.6 -0.4
v 1.3 3.6 -0.9
v 1.3 3.9 2.23517e-08
v 1.3 3.9 -0.4
v 1.4 0 -0.9
v 1.4 0 -1
v 1.4 3.1 -0.9
v 1.4 3.1 -1
v 2 0 -1
v 2 0 -2
v 2 3.1 -0.9
v 2 3.1 -1
v 2 3.6 -0.4
v 2 3.6 -0.9
v 2 4 -0.4
v 2 4 -2
v -1.5 3.4 2.23517e-08
v -1.5 3.8 2.23517e-08
v -1.1 3.8 2.23517e-08
v -1.1 3.9 2.23517e-08
v 1.3 3.4 2.23517e-08
v 1.3 3.9 2.23517e-08
v -1.5 2.4 -0.2
v -1.5 3.4 -0.2
v -0.8 0 -0.2
v -0.8 2.4 -0.2
v 0.3 0 -0.2
v 0.3 3 -0.2
v 1.3 3 -0.2
v 1.3 3.4 -0.2
v -1.5 0 -0.3
v -1.5 2.4 -0.3
v -0.8 0 -0.3
v -0.8 2.4 -0.3
v 0.3 0 -0.3
v 0.3 3 -0.3
v 1.3 0 -0.3
v 1.3 3 -0.3
v 1.3 3.6 -0.4
v 1.3 3.9 -0.4
v 1.4 3.9 -0.4
v 1.4 4 -0.4
v 2 3.6 -0.4
v 2 4 -0.4
v -2 3.6 -0.5
v -2 4 -0.5
v -1.7 3.8 -0.5
v -1.7 4 -0.5
v -1.5 3.6 -0.5
v -1.5 3.8 -0.5
v -1.1 3.9 -0.5
v -1.1 4 -0.5
v 1.4 3.9 -0.5
v 1.4 4 -0.5
v -1.7 3.8 -0.6
v -1.7 4 -0.6
v -1.1 3.8 -0.6
v -1.1 4 -0.6
v 1.3 0 -0.9
v 1.3 3.6 -0.9
v 1.4 0 -0.9
v 1.4 3.1 -0.9
v 2 3.1 -0.9
v 2 3.6 -0.9
v -2 2.8 -1
v -2 3.6 -1
v -1.7 0 -1
v -1.7 2.8 -1
v -1.5 0 -1
v -1.5 3.6 -1
v 1.4 0 -1
v 1.4 3.1 -1
v 2 0 -1
v 2 3.1 -1
v -2 0 -1.1
v -2 2.8 -1.1
v -1.7 0 -1.1
v -1.7 2.8 -1.1
v -2 0 -2
v -2 4 -2
v 2 0 -2
v 2 4 -2
v -0.8 0 -0.2
v 0.3 0 -0.2
v -1.5 0 -0.3
v -0.8 0 -0.3
v 0.3 0 -0.3
v 1.3 0 -0.3
v 1.3 0 -0.9
v 1.4 0 -0.9
v -1.7 0 -1
v -1.5 0 -1
v 1.4 0 -1
v 2 0 -1
v -2 0 -1.1
v -1.7 0 -1.1
v -2 0 -2
v 2 0 -2
v -1.5 2.4 -0.2
v -0.8 2.4 -0.2
v -1.5 2.4 -0.3
v -0.8 2.4 -0.3
v -2 2.8 -1
v -1.7 2.8 -1
v -2 2.8 -1.1
v -1.7 2.8 -1.1
v 0.3 3 -0.2
v 1.3 3 -0.2
v 0.3 3 -0.3
v 1.3 3 -0.3
v 1.4 3.1 -0.9
v 2 3.1 -0.9
v 1.4 3.1 -1
v 2 3.1 -1
v -1.5 3.4 2.23517e-08
v 1.3 3.4 2.23517e-08
v -1.5 3.4 -0.2
v 1.3 3.4 -0.2
v 1.3 3.6 -0.4
v 2 3.6 -0.4
v -2 3.6 -0.5
v -1.5 3.6 -0.5
v 1.3 3.6 -0.9
v 2 3.6 -0.9
v -2 3.6 -1
v -1.5 3.6 -1
v -1.5 3.8 2.23517e-08
v -1.1 3.8 2.23517e-08
v -1.7 3.8 -0.5
v -1.5 3.8 -0.5
v -1.7 3.8 -0.6
v -1.1 3.8 -0.6
v -1.1 3.9 2.23517e-08
v 1.3 3.9 2.23517e-08
v 1.3 3.9 -0.4
v 1.4 3.9 -0.4
v -1.1 3.9 -0.5
v 1.4 3.9 -0.5
v 1.4 4 -0.4
v 2 4 -0.4
v -2 4 -0.5
v -1.7 4 -0.5
v -1.1 4 -0.5
v 1.4 4 -0.5
v -1.7 4 -0.6
v -1.1 4 -0.6
v -2 4 -2
v 2 4 -2

# faces
f 4/1/1 2/1/1 1/1/1
f 6/1/1 4/1/1 3/1/1
f 7/1/1 6/1/1 5/1/1
f 8/1/1 2/1/1 4/1/1
f 8/1/1 6/1/1 7/1/1
f 8/1/1 4/1/1 6/1/1
f 11/1/1 10/1/1 9/1/1
f 12/1/1 10/1/1 11/1/1
f 16/1/1 14/1/1 13/1/1
f 18/1/1 16/1/1 15/1/1
f 19/1/1 14/1/1 16/1/1
f 19/1/1 18/1/1 17/1/1
f 19/1/1 16/1/1 18/1/1
f 20/1/1 14/1/1 19/1/1
f 21/1/1 19/1/1 17/1/1
f 22/1/1 19/1/1 21/1/1
f 25/1/1 24/1/1 23/1/1
f 26/1/1 24/1/1 25/1/1
f 27/1/1 24/1/1 26/1/1
f 28/1/1 24/1/1 27/1/1
f 31/1/1 30/1/1 29/1/1
f 32/1/1 30/1/1 31/1/1
f 35/1/1 34/1/1 33/1/1
f 36/1/1 34/1/1 35/1/1
f 37/1/2 38/1/2 39/1/2
f 39/1/2 38/1/2 40/1/2
f 41/1/2 42/1/2 43/1/2
f 43/1/2 42/1/2 44/1/2
f 45/1/2 46/1/2 48/1/2
f 47/1/2 48/1/2 50/1/2
f 48/1/2 46/1/2 51/1/2
f 49/1/2 50/1/2 51/1/2
f 50/1/2 48/1/2 51/1/2
f 51/1/2 46/1/2 52/1/2
f 49/1/2 51/1/2 53/1/2
f 53/1/2 51/1/2 54/1/2
f 55/1/2 56/1/2 57/1/2
f 57/1/2 56/1/2 58/1/2
f 59/1/2 60/1/2 62/1/2
f 61/1/2 62/1/2 64/1/2
f 63/1/2 64/1/2 65/1/2
f 62/1/2 60/1/2 66/1/2
f 65/1/2 64/1/2 66/1/2
f 64/1/2 62/1/2 66/1/2
f 69/1/3 68/1/3 67/1/3
f 71/1/3 69/1/3 67/1/3
f 71/1/3 70/1/3 69/1/3
f 72/1/3 70/1/3 71/1/3
f 76/1/3 74/1/3 73/1/3
f 77/1/3 76/1/3 75/1/3
f 78/1/3 74/1/3 76/1/3
f 78/1/3 76/1/3 77/1/3
f 79/1/3 74/1/3 78/1/3
f 80/1/3 74/1/3 79/1/3
f 83/1/3 82/1/3 81/1/3
f 84/1/3 82/1/3 83/1/3
f 87/1/3 86/1/3 85/1/3
f 88/1/3 86/1/3 87/1/3
f 91/1/3 90/1/3 89/1/3
f 93/1/3 91/1/3 89/1/3
f 93/1/3 92/1/3 91/1/3
f 94/1/3 92/1/3 93/1/3
f 97/1/3 96/1/3 95/1/3
f 98/1/3 96/1/3 97/1/3
f 99/1/3 97/1/3 95/1/3
f 100/1/3 97/1/3 99/1/3
f 103/1/3 102/1/3 101/1/3
f 104/1/3 102/1/3 103/1/3
f 107/1/3 106/1/3 105/1/3
f 108/1/3 106/1/3 107/1/3
f 111/1/3 110/1/3 109/1/3
f 112/1/3 110/1/3 111/1/3
f 113/1/3 110/1/3 112/1/3
f 114/1/3 110/1/3 113/1/3
f 118/1/3 116/1/3 115/1/3
f 119/1/3 118/1/3 117/1/3
f 120/1/3 116/1/3 118/1/3
f 120/1/3 118/1/3 119/1/3
f 123/1/3 122/1/3 121/1/3
f 124/1/3 122/1/3 123/1/3
f 127/1/3 126/1/3 125/1/3
f 128/1/3 126/1/3 127/1/3
f 129/1/4 130/1/4 131/1/4
f 131/1/4 130/1/4 132/1/4
f 136/1/5 134/1/5 133/1/5
f 137/1/5 134/1/5 136/1/5
f 139/1/5 136/1/5 135/1/5
f 139/1/5 138/1/5 137/1/5
f 139/1/5 137/1/5 136/1/5
f 142/1/5 139/1/5 135/1/5
f 142/1/5 140/1/5 139/1/5
f 143/1/5 140/1/5 142/1/5
f 146/1/5 142/1/5 141/1/5
f 146/1/5 144/1/5 143/1/5
f 146/1/5 143/1/5 142/1/5
f 147/1/5 146/1/5 145/1/5
f 148/1/5 144/1/5 146/1/5
f 148/1/5 146/1/5 147/1/5
f 151/1/5 150/1/5 149/1/5
f 152/1/5 150/1/5 151/1/5
f 155/1/5 154/1/5 153/1/5
f 156/1/5 154/1/5 155/1/5
f 159/1/5 158/1/5 157/1/5
f 160/1/5 158/1/5 159/1/5
f 163/1/5 162/1/5 161/1/5
f 164/1/5 162/1/5 163/1/5
f 167/1/5 166/1/5 165/1/5
f 168/1/5 166/1/5 167/1/5
f 173/1/5 170/1/5 169/1/5
f 174/1/5 170/1/5 173/1/5
f 175/1/5 172/1/5 171/1/5
f 176/1/5 172/1/5 175/1/5
f 177/1/6 178/1/6 180/1/6
f 179/1/6 180/1/6 181/1/6
f 180/1/6 178/1/6 182/1/6
f 181/1/6 180/1/6 182/1/6
f 183/1/6 184/1/6 185/1/6
f 183/1/6 185/1/6 187/1/6
f 185/1/6 186/1/6 187/1/6
f 187/1/6 186/1/6 188/1/6
f 189/1/6 190/1/6 194/1/6
f 191/1/6 192/1/6 195/1/6
f 193/1/6 194/1/6 196/1/6
f 191/1/6 195/1/6 197/1/6
f 195/1/6 196/1/6 197/1/6
f 196/1/6 194/1/6 198/1/6
f 197/1/6 196/1/6 198/1/6
f 194/1/6 190/1/6 198/1/6
